<?xml version="1.0" encoding="UTF-8" standalone="no"?>
<!-- Created with Inkscape (http://www.inkscape.org/) -->

<svg
   width="16.933542mm"
   height="6.398479mm"
   viewBox="0 0 16.933542 6.398479"
   version="1.1"
   id="svg1"
   sodipodi:docname="logo-vectorized.svg"
   inkscape:version="1.4 (86a8ad7, 2024-10-11)"
   inkscape:export-filename="application-logo.svg"
   inkscape:export-xdpi="96"
   inkscape:export-ydpi="96"
   xmlns:inkscape="http://www.inkscape.org/namespaces/inkscape"
   xmlns:sodipodi="http://sodipodi.sourceforge.net/DTD/sodipodi-0.dtd"
   xmlns="http://www.w3.org/2000/svg"
   xmlns:svg="http://www.w3.org/2000/svg">
  <sodipodi:namedview
     id="namedview1"
     pagecolor="#ffffff"
     bordercolor="#000000"
     borderopacity="0.25"
     inkscape:showpageshadow="2"
     inkscape:pageopacity="0.0"
     inkscape:pagecheckerboard="0"
     inkscape:deskcolor="#d1d1d1"
     inkscape:document-units="mm"
     inkscape:zoom="14.046702"
     inkscape:cx="35.880308"
     inkscape:cy="19.043616"
     inkscape:window-width="1920"
     inkscape:window-height="1057"
     inkscape:window-x="1912"
     inkscape:window-y="-8"
     inkscape:window-maximized="1"
     inkscape:current-layer="text1" />
  <defs
     id="defs1" />
  <g
     id="layer1"
     transform="translate(-64.273977,-54.013378)">
    <g
       id="text1"
       style="font-size:3.175px;fill:#1b2845;stroke-width:0.264583"
       aria-label="Controle de&#10;Débitos.">
      <path
         style="font-weight:bold;font-family:Inter;-inkscape-font-specification:'Inter Bold'"
         d="m 65.371591,56.39773 q -0.31626,0 -0.565857,-0.144177 -0.248047,-0.145728 -0.390674,-0.412378 -0.141076,-0.268201 -0.141076,-0.63407 0,-0.368969 0.141076,-0.63717 0.142627,-0.268201 0.390674,-0.412378 0.249597,-0.144177 0.565857,-0.144177 0.203089,0 0.376721,0.06046 0.173633,0.06046 0.306958,0.172083 0.134876,0.111621 0.220142,0.2682 0.08527,0.15658 0.113171,0.350367 h -0.482141 q -0.02015,-0.10232 -0.06666,-0.181385 -0.04651,-0.08062 -0.114722,-0.134875 -0.06821,-0.05581 -0.15658,-0.08372 -0.08682,-0.02946 -0.190686,-0.02946 -0.196887,0 -0.336413,0.09457 -0.137976,0.09457 -0.21239,0.268201 -0.07441,0.172082 -0.07441,0.409277 0,0.235645 0.07286,0.407727 0.07441,0.172083 0.213941,0.266651 0.139526,0.09457 0.336413,0.09457 0.10387,0 0.190686,-0.02791 0.08682,-0.0279 0.15503,-0.08372 0.06821,-0.05581 0.114721,-0.134875 0.04651,-0.07906 0.06976,-0.179834 h 0.48059 q -0.02791,0.192236 -0.113171,0.348816 -0.08527,0.15658 -0.220142,0.268201 -0.134875,0.111621 -0.308508,0.172082 -0.172082,0.05891 -0.375171,0.05891 z m 2.030884,0 q -0.246497,0 -0.434082,-0.10697 -0.187585,-0.10697 -0.293005,-0.299206 -0.10387,-0.192237 -0.10387,-0.448035 0,-0.257349 0.10387,-0.449585 0.10542,-0.192236 0.293005,-0.299207 0.187585,-0.10852 0.434082,-0.10852 0.249597,0 0.435632,0.10852 0.187586,0.106971 0.291455,0.299207 0.10542,0.192236 0.10542,0.449585 0,0.255798 -0.10542,0.448035 -0.103869,0.192236 -0.291455,0.299206 -0.186035,0.10697 -0.435632,0.10697 z m 0,-0.37052 q 0.111621,0 0.195337,-0.05736 0.08372,-0.05891 0.130225,-0.167431 0.04651,-0.108521 0.04651,-0.258899 0,-0.153479 -0.04651,-0.262 -0.04651,-0.10852 -0.130225,-0.165881 -0.08372,-0.05891 -0.195337,-0.05891 -0.110071,0 -0.193787,0.05891 -0.08371,0.05736 -0.130224,0.165881 -0.04651,0.108521 -0.04651,0.262 0,0.151929 0.04651,0.260449 0.04651,0.10697 0.130224,0.165881 0.08372,0.05736 0.193787,0.05736 z m 1.540991,-0.576709 v 0.910022 H 68.48613 v -1.637109 h 0.449585 v 0.42633 H 68.8582 q 0.07752,-0.217041 0.221692,-0.337963 0.144177,-0.122474 0.367419,-0.122474 0.175183,0 0.303858,0.07597 0.128674,0.07441 0.198437,0.218591 0.07131,0.144177 0.07131,0.351917 v 1.024743 h -0.455786 v -0.941028 q 0,-0.164331 -0.07906,-0.249597 -0.07752,-0.08682 -0.221692,-0.08682 -0.09457,0 -0.167432,0.03876 -0.07286,0.03876 -0.113171,0.120923 -0.04031,0.08062 -0.04031,0.207739 z m 2.342493,-0.727087 v 0.358118 h -1.074353 v -0.358118 z m -0.7922,-0.446484 h 0.457337 v 1.578198 q 0,0.08216 0.03256,0.114721 0.03411,0.03256 0.127124,0.03256 0.03876,0 0.09147,0 0.05426,0 0.08372,0 v 0.358117 q -0.04186,0 -0.116272,0 -0.07441,0 -0.150379,0 -0.269751,0 -0.398425,-0.10542 -0.127124,-0.10542 -0.127124,-0.328662 z m 1.021643,2.083593 v -1.637109 h 0.440283 v 0.279053 h 0.0047 q 0.04496,-0.147278 0.141077,-0.218592 0.09612,-0.07131 0.258899,-0.07131 0.04031,0 0.07286,0.0016 0.03411,0 0.06201,0.0016 v 0.389124 q -0.0248,-0.0015 -0.08217,-0.0047 -0.05581,-0.0031 -0.114722,-0.0031 -0.09302,0 -0.167431,0.04341 -0.07442,0.04186 -0.116272,0.125573 -0.04186,0.08372 -0.04186,0.20774 v 0.886767 z m 1.929806,0.03721 q -0.246497,0 -0.434082,-0.10697 -0.187586,-0.10697 -0.293005,-0.299206 -0.10387,-0.192237 -0.10387,-0.448035 0,-0.257349 0.10387,-0.449585 0.105419,-0.192236 0.293005,-0.299207 0.187585,-0.10852 0.434082,-0.10852 0.249597,0 0.435632,0.10852 0.187586,0.106971 0.291455,0.299207 0.10542,0.192236 0.10542,0.449585 0,0.255798 -0.10542,0.448035 -0.103869,0.192236 -0.291455,0.299206 -0.186035,0.10697 -0.435632,0.10697 z m 0,-0.37052 q 0.111621,0 0.195337,-0.05736 0.08372,-0.05891 0.130224,-0.167431 0.04651,-0.108521 0.04651,-0.258899 0,-0.153479 -0.04651,-0.262 -0.04651,-0.10852 -0.130224,-0.165881 -0.08372,-0.05891 -0.195337,-0.05891 -0.110071,0 -0.193787,0.05891 -0.08371,0.05736 -0.130224,0.165881 -0.04651,0.108521 -0.04651,0.262 0,0.151929 0.04651,0.260449 0.04651,0.10697 0.130224,0.165881 0.08372,0.05736 0.193787,0.05736 z m 1.540991,-1.976623 v 2.309936 h -0.457337 v -2.309936 z m 1.069702,2.347143 q -0.248047,0 -0.432532,-0.10852 -0.182934,-0.110071 -0.285254,-0.303858 -0.100769,-0.193786 -0.100769,-0.441833 0,-0.251148 0.10232,-0.443384 0.103869,-0.193787 0.285254,-0.303857 0.181384,-0.110071 0.415478,-0.110071 0.181384,0 0.328662,0.06201 0.147278,0.06046 0.254248,0.175183 0.106971,0.113171 0.164331,0.2682 0.05891,0.15503 0.05891,0.342615 v 0.122473 h -1.446424 v -0.291455 h 1.226282 l -0.206189,0.06976 q 0,-0.124023 -0.04496,-0.21394 -0.04496,-0.08992 -0.128674,-0.137976 -0.08217,-0.04961 -0.196887,-0.04961 -0.113171,0 -0.195337,0.04961 -0.08217,0.04806 -0.127124,0.137976 -0.04496,0.08992 -0.04496,0.21394 v 0.198438 q 0,0.127124 0.04496,0.223242 0.04651,0.09457 0.133325,0.147278 0.08682,0.05116 0.20929,0.05116 0.08992,0 0.15813,-0.02481 0.06976,-0.02635 0.116272,-0.07286 0.04806,-0.04806 0.06821,-0.111621 h 0.417028 q -0.02945,0.162781 -0.137976,0.286804 -0.10852,0.124024 -0.272851,0.195337 -0.164331,0.06976 -0.362769,0.06976 z m 2.353345,-0.0031 q -0.21394,0 -0.37362,-0.106971 -0.15968,-0.10697 -0.248047,-0.299206 -0.08682,-0.192236 -0.08682,-0.448035 0,-0.252697 0.08837,-0.443384 0.08992,-0.192236 0.248047,-0.299206 0.15968,-0.108521 0.36897,-0.108521 0.10697,0 0.196887,0.02946 0.08992,0.0279 0.161231,0.08527 0.07131,0.05736 0.124023,0.145728 h 0.0015 v -0.89917 h 0.455786 v 2.309936 h -0.449585 v -0.251147 h -0.0016 q -0.04806,0.09457 -0.120923,0.15968 -0.07131,0.06356 -0.164331,0.09457 -0.09302,0.03101 -0.199988,0.03101 z m 0.117823,-0.372071 q 0.116272,0 0.201538,-0.05891 0.08682,-0.06046 0.134875,-0.168982 0.04806,-0.10852 0.04806,-0.254248 0,-0.147278 -0.04806,-0.254248 -0.04806,-0.10852 -0.134875,-0.167431 -0.08527,-0.06046 -0.201538,-0.06046 -0.110071,0 -0.192237,0.05736 -0.08217,0.05736 -0.128674,0.164331 -0.04496,0.10697 -0.04496,0.260449 0,0.153479 0.04496,0.262 0.04651,0.10697 0.128674,0.164331 0.08217,0.05581 0.192237,0.05581 z m 1.889806,0.375171 q -0.248046,0 -0.432531,-0.10852 -0.182935,-0.110071 -0.285254,-0.303858 -0.100769,-0.193786 -0.100769,-0.441833 0,-0.251148 0.102319,-0.443384 0.10387,-0.193787 0.285254,-0.303857 0.181384,-0.110071 0.415479,-0.110071 0.181384,0 0.328662,0.06201 0.147277,0.06046 0.254248,0.175183 0.10697,0.113171 0.164331,0.2682 0.05891,0.15503 0.05891,0.342615 v 0.122473 h -1.446423 v -0.291455 h 1.226281 l -0.206189,0.06976 q 0,-0.124023 -0.04496,-0.21394 -0.04496,-0.08992 -0.128675,-0.137976 -0.08217,-0.04961 -0.196887,-0.04961 -0.113171,0 -0.195337,0.04961 -0.08217,0.04806 -0.127124,0.137976 -0.04496,0.08992 -0.04496,0.21394 v 0.198438 q 0,0.127124 0.04496,0.223242 0.04651,0.09457 0.133326,0.147278 0.08682,0.05116 0.209289,0.05116 0.08992,0 0.15813,-0.02481 0.06976,-0.02635 0.116272,-0.07286 0.04806,-0.04806 0.06821,-0.111621 h 0.417029 q -0.02946,0.162781 -0.137976,0.286804 -0.108521,0.124024 -0.272852,0.195337 -0.164331,0.06976 -0.362769,0.06976 z"
         id="path1" />
      <path
         style="font-weight:bold;font-family:Inter;-inkscape-font-specification:'Inter Bold'"
         d="m 65.163852,60.371549 h -0.596863 v -0.401525 h 0.572058 q 0.232544,0 0.384473,-0.08682 0.151929,-0.08837 0.226343,-0.255798 0.07441,-0.168982 0.07441,-0.412378 0,-0.243396 -0.07441,-0.410828 -0.07441,-0.167431 -0.226343,-0.254248 -0.150379,-0.08682 -0.379822,-0.08682 h -0.587561 v -0.401526 h 0.617017 q 0.347265,0 0.601513,0.141077 0.254248,0.139526 0.392224,0.398425 0.137977,0.258899 0.137977,0.613916 0,0.355017 -0.137977,0.615466 -0.137976,0.258899 -0.393774,0.399976 -0.254248,0.141076 -0.609265,0.141076 z m -0.337964,-2.309936 v 2.309936 h -0.47749 v -2.309936 z m 2.48512,2.347143 q -0.248047,0 -0.432532,-0.10852 -0.182935,-0.110071 -0.285254,-0.303857 -0.100769,-0.193787 -0.100769,-0.441834 0,-0.251147 0.102319,-0.443384 0.10387,-0.193786 0.285254,-0.303857 0.181384,-0.110071 0.415479,-0.110071 0.181384,0 0.328662,0.06201 0.147278,0.06046 0.254248,0.175183 0.10697,0.113171 0.164331,0.268201 0.05891,0.155029 0.05891,0.342614 v 0.122473 h -1.446423 v -0.291455 h 1.226281 l -0.206189,0.06976 q 0,-0.124024 -0.04496,-0.213941 -0.04496,-0.08992 -0.128674,-0.137976 -0.08217,-0.04961 -0.196888,-0.04961 -0.113171,0 -0.195337,0.04961 -0.08217,0.04806 -0.127124,0.137976 -0.04496,0.08992 -0.04496,0.213941 v 0.198437 q 0,0.127124 0.04496,0.223242 0.04651,0.09457 0.133326,0.147278 0.08682,0.05116 0.209289,0.05116 0.08992,0 0.15813,-0.02481 0.06976,-0.02635 0.116272,-0.07286 0.04806,-0.04806 0.06821,-0.111621 h 0.417029 q -0.02946,0.162781 -0.137976,0.286804 -0.108521,0.124024 -0.272852,0.195337 -0.164331,0.06976 -0.362768,0.06976 z M 67.11257,58.532902 67.382321,58.04766 h 0.446484 l -0.393774,0.485242 z m 2.171961,1.872754 q -0.106971,0 -0.199988,-0.03101 -0.09302,-0.03101 -0.165882,-0.09457 -0.07131,-0.06511 -0.119372,-0.15968 h -0.0015 v 0.251147 h -0.451136 v -2.309936 h 0.457337 v 0.89917 h 0.0016 q 0.05271,-0.08837 0.124023,-0.145728 0.07131,-0.05736 0.161231,-0.08527 0.09147,-0.02945 0.196887,-0.02945 0.20929,0 0.36742,0.10852 0.15968,0.10697 0.248046,0.299207 0.08992,0.190686 0.08992,0.443383 0,0.255799 -0.08837,0.448035 -0.08837,0.192236 -0.246497,0.299207 -0.15813,0.10697 -0.37362,0.10697 z m -0.117823,-0.37207 q 0.111621,0 0.192237,-0.05581 0.08216,-0.05736 0.127124,-0.164331 0.04651,-0.108521 0.04651,-0.262 0,-0.153479 -0.04651,-0.260449 -0.04496,-0.10697 -0.127124,-0.164331 -0.08062,-0.05736 -0.192237,-0.05736 -0.114721,0 -0.203088,0.06046 -0.08682,0.05891 -0.134876,0.167431 -0.04651,0.106971 -0.04651,0.254248 0,0.145728 0.04651,0.254249 0.04806,0.10852 0.134876,0.168981 0.08837,0.05891 0.203088,0.05891 z m 1.077454,0.337963 V 58.73444 h 0.457336 v 1.637109 z m 0.227893,-1.843298 q -0.113171,0 -0.187585,-0.06821 -0.07441,-0.06976 -0.07441,-0.175183 0,-0.10542 0.07441,-0.173633 0.07441,-0.06976 0.186035,-0.06976 0.113171,0 0.187585,0.06976 0.07441,0.06821 0.07441,0.173633 0,0.10542 -0.07441,0.175183 -0.07441,0.06821 -0.186035,0.06821 z m 1.515569,0.206189 v 0.358118 H 70.913271 V 58.73444 Z m -0.7922,-0.446484 h 0.457336 v 1.578198 q 0,0.08216 0.03256,0.114722 0.03411,0.03256 0.127124,0.03256 0.03876,0 0.09147,0 0.05426,0 0.08372,0 v 0.358117 q -0.04186,0 -0.116272,0 -0.07441,0 -0.150379,0 -0.269751,0 -0.398425,-0.105419 -0.127124,-0.10542 -0.127124,-0.328663 z m 1.75865,2.1208 q -0.246497,0 -0.434082,-0.10697 -0.187586,-0.10697 -0.293006,-0.299206 -0.103869,-0.192237 -0.103869,-0.448035 0,-0.257349 0.103869,-0.449585 0.10542,-0.192236 0.293006,-0.299206 0.187585,-0.108521 0.434082,-0.108521 0.249597,0 0.435632,0.108521 0.187586,0.10697 0.291455,0.299206 0.10542,0.192236 0.10542,0.449585 0,0.255798 -0.10542,0.448035 -0.103869,0.192236 -0.291455,0.299206 -0.186035,0.10697 -0.435632,0.10697 z m 0,-0.37052 q 0.111621,0 0.195337,-0.05736 0.08372,-0.05891 0.130224,-0.167432 0.04651,-0.108521 0.04651,-0.258899 0,-0.153479 -0.04651,-0.261999 -0.04651,-0.108521 -0.130224,-0.165882 -0.08372,-0.05891 -0.195337,-0.05891 -0.110071,0 -0.193787,0.05891 -0.08372,0.05736 -0.130224,0.165882 -0.04651,0.10852 -0.04651,0.261999 0,0.151929 0.04651,0.260449 0.04651,0.10697 0.130224,0.165882 0.08372,0.05736 0.193787,0.05736 z m 1.764233,0.373621 q -0.21239,0 -0.378271,-0.06511 -0.165882,-0.06666 -0.2651,-0.190686 -0.09922,-0.124024 -0.114722,-0.299207 h 0.449585 q 0.0124,0.10697 0.08992,0.167432 0.07751,0.06046 0.21084,0.06046 0.127124,0 0.198437,-0.04806 0.07286,-0.04806 0.07286,-0.124023 0,-0.06511 -0.05581,-0.10542 -0.05426,-0.04031 -0.15503,-0.05891 l -0.286804,-0.05581 q -0.238745,-0.04651 -0.362768,-0.167431 -0.124024,-0.120923 -0.124024,-0.310059 0,-0.155029 0.08372,-0.271301 0.08527,-0.116272 0.240295,-0.179834 0.15658,-0.06356 0.37052,-0.06356 0.21239,0 0.37052,0.06821 0.15813,0.06666 0.246497,0.190686 0.08992,0.124023 0.09457,0.294555 h -0.42323 q -0.0015,-0.09922 -0.07751,-0.164331 -0.07596,-0.06511 -0.198437,-0.06511 -0.117823,0 -0.184485,0.05116 -0.06666,0.04961 -0.06666,0.122473 0,0.06356 0.05271,0.103869 0.05271,0.04031 0.145728,0.06046 l 0.310058,0.06046 q 0.248047,0.04806 0.364319,0.15813 0.117822,0.108521 0.117822,0.289905 0,0.162781 -0.09302,0.285254 -0.09147,0.120923 -0.255799,0.189135 -0.16278,0.06666 -0.376721,0.06666 z m 1.196826,-0.0124 q -0.10852,0 -0.186035,-0.07597 -0.07596,-0.07751 -0.07596,-0.187585 0,-0.110071 0.07596,-0.186035 0.07752,-0.07751 0.186035,-0.07751 0.110071,0 0.186036,0.07751 0.07751,0.07596 0.07751,0.186035 0,0.110071 -0.07751,0.187585 -0.07596,0.07597 -0.186036,0.07597 z"
         id="path2" />
    </g>
  </g>
</svg>
