<?xml version="1.0" encoding="UTF-8" standalone="no"?>
<!-- Created with Inkscape (http://www.inkscape.org/) -->

<svg
   width="2.1472976mm"
   height="2.384351mm"
   viewBox="0 0 2.1472976 2.384351"
   version="1.1"
   id="svg1"
   xmlns="http://www.w3.org/2000/svg"
   xmlns:svg="http://www.w3.org/2000/svg">
  <defs
     id="defs1" />
  <g
     id="layer1"
     transform="translate(-72.034399,-55.765124)">
    <g
       id="text1"
       style="font-size:3.175px;fill:#1b2845;stroke-width:0.264583"
       aria-label="Controle de&#10;Débitos.">
      <path
         id="path1"
         style="font-weight:bold;font-family:Inter;-inkscape-font-specification:'Inter Bold';fill:#f9f9f9;stroke:none;stroke-width:0.0529167;stroke-dasharray:none;stroke-opacity:1"
         d="m 73.132006,55.765124 c -0.21084,0 -0.399459,0.04806 -0.565857,0.144177 -0.165364,0.09612 -0.295589,0.233578 -0.390673,0.412378 -0.09405,0.178801 -0.141077,0.391191 -0.141077,0.637171 0,0.243912 0.04703,0.455269 0.141077,0.634069 0.09508,0.177767 0.225309,0.315226 0.390673,0.412378 0.166398,0.09612 0.355017,0.144178 0.565857,0.144178 0.135393,0 0.26045,-0.01964 0.375171,-0.05891 0.115756,-0.04031 0.218592,-0.09767 0.308509,-0.172082 0.08991,-0.07441 0.163295,-0.163814 0.220141,-0.268201 0.05684,-0.104386 0.09456,-0.220658 0.113172,-0.348816 h -0.480591 c -0.0155,0.06718 -0.03876,0.127128 -0.06976,0.179834 -0.03101,0.05271 -0.06925,0.09767 -0.114722,0.134876 -0.04547,0.03721 -0.09715,0.06512 -0.155029,0.08372 -0.05788,0.01861 -0.12144,0.02791 -0.190686,0.02791 -0.131258,0 -0.243397,-0.03152 -0.336414,-0.09457 -0.09302,-0.06305 -0.164334,-0.151928 -0.21394,-0.26665 -0.04857,-0.114722 -0.07286,-0.250631 -0.07286,-0.407727 0,-0.15813 0.02481,-0.294556 0.07441,-0.409278 0.04961,-0.115754 0.120406,-0.205154 0.21239,-0.2682 0.09302,-0.06305 0.205156,-0.09457 0.336414,-0.09457 0.06924,0 0.132806,0.0098 0.190686,0.02945 0.05891,0.01861 0.111106,0.04651 0.156579,0.08372 0.04548,0.03617 0.08372,0.08113 0.114722,0.134876 0.03101,0.05271 0.05323,0.113171 0.06666,0.181384 H 74.149 c -0.0186,-0.129191 -0.05633,-0.24598 -0.113172,-0.350366 -0.05684,-0.104386 -0.130224,-0.193787 -0.220141,-0.268201 -0.08888,-0.07442 -0.191203,-0.131776 -0.306958,-0.172083 -0.115755,-0.04031 -0.241329,-0.06046 -0.376722,-0.06046 z" />
      <circle
         style="fill:#274060;fill-opacity:1;stroke-width:0.0700042"
         id="path14"
         cx="73.936829"
         cy="56.932957"
         r="0.24486767" />
    </g>
  </g>
</svg>
